REM DIRINDEX 1\2,1\3\7,1\3\8,1\4\9,1\4\10,1\4\11,1\5\12,1\5\13,1\5\14,1\6\15,1\6\16,1\6\17
REM DIRNAME "folder01","folder02","folder03","folder04","folder05","folder06","folder07","folder08","folder09","folder10","folder11","folder12","folder13","folder14","folder15","folder16","folder17"
TITLE ""
FILE "2Q_t_1001-1017.mp3" MP3
  TRACK 01 AUDIO
    TITLE "0:"
    INDEX 01 00:00:00
  TRACK 02 AUDIO
    TITLE "2:cjc174_3786"
    INDEX 01 00:00:18
  TRACK 03 AUDIO
    TITLE "0:"
    INDEX 01 00:01:55
  TRACK 04 AUDIO
    TITLE "2:cjc174_3787"
    INDEX 01 00:02:25
  TRACK 05 AUDIO
    TITLE "0:"
    INDEX 01 00:03:32
  TRACK 06 AUDIO
    TITLE "7:cjc174_3788"
    INDEX 01 00:04:02
  TRACK 07 AUDIO
    TITLE "0:"
    INDEX 01 00:05:06
  TRACK 08 AUDIO
    TITLE "8:cjc174_3789"
    INDEX 01 00:05:49
  TRACK 09 AUDIO
    TITLE "0:"
    INDEX 01 00:10:11
  TRACK 10 AUDIO
    TITLE "7:cjc174_3790"
    INDEX 01 00:10:56
  TRACK 11 AUDIO
    TITLE "0:"
    INDEX 01 00:12:08
  TRACK 12 AUDIO
    TITLE "8:cjc174_3791"
    INDEX 01 00:12:55
  TRACK 13 AUDIO
    TITLE "0:"
    INDEX 01 00:14:30
  TRACK 14 AUDIO
    TITLE "7:cjc174_3792"
    INDEX 01 00:14:75
  TRACK 15 AUDIO
    TITLE "0:"
    INDEX 01 00:16:07
  TRACK 16 AUDIO
    TITLE "8:cjc174_3793"
    INDEX 01 00:16:52
  TRACK 17 AUDIO
    TITLE "0:"
    INDEX 01 00:20:62
  TRACK 18 AUDIO
    TITLE "7:cjc174_3794"
    INDEX 01 00:21:32
  TRACK 19 AUDIO
    TITLE "0:"
    INDEX 01 00:22:49
  TRACK 20 AUDIO
    TITLE "8:cjc174_3795"
    INDEX 01 00:23:25
  TRACK 21 AUDIO
    TITLE "0:"
    INDEX 01 00:26:63
  TRACK 22 AUDIO
    TITLE "7:cjc174_3796"
    INDEX 01 00:27:31
  TRACK 23 AUDIO
    TITLE "0:"
    INDEX 01 00:28:50
  TRACK 24 AUDIO
    TITLE "8:cjc174_3797"
    INDEX 01 00:29:24
  TRACK 25 AUDIO
    TITLE "0:"
    INDEX 01 00:30:60
  TRACK 26 AUDIO
    TITLE "7:cjc174_3798"
    INDEX 01 00:31:32
  TRACK 27 AUDIO
    TITLE "0:"
    INDEX 01 00:32:34
  TRACK 28 AUDIO
    TITLE "8:cjc174_3799"
    INDEX 01 00:33:06
  TRACK 29 AUDIO
    TITLE "0:"
    INDEX 01 00:34:39
  TRACK 30 AUDIO
    TITLE "7:cjc174_3800"
    INDEX 01 00:35:09
  TRACK 31 AUDIO
    TITLE "0:"
    INDEX 01 00:36:39
  TRACK 32 AUDIO
    TITLE "8:cjc174_3801"
    INDEX 01 00:37:11
  TRACK 33 AUDIO
    TITLE "0:"
    INDEX 01 00:43:04
  TRACK 34 AUDIO
    TITLE "7:cjc174_3802"
    INDEX 01 00:43:49
  TRACK 35 AUDIO
    TITLE "0:"
    INDEX 01 00:44:39
  TRACK 36 AUDIO
    TITLE "8:cjc174_3803"
    INDEX 01 00:45:17
  TRACK 37 AUDIO
    TITLE "0:"
    INDEX 01 00:46:73
  TRACK 38 AUDIO
    TITLE "7:cjc174_3804"
    INDEX 01 00:47:41
  TRACK 39 AUDIO
    TITLE "0:"
    INDEX 01 00:48:70
  TRACK 40 AUDIO
    TITLE "8:cjc174_3805"
    INDEX 01 00:49:42
  TRACK 41 AUDIO
    TITLE "0:"
    INDEX 01 00:51:16
  TRACK 42 AUDIO
    TITLE "7:cjc174_3806"
    INDEX 01 00:51:61
  TRACK 43 AUDIO
    TITLE "0:"
    INDEX 01 00:52:72
  TRACK 44 AUDIO
    TITLE "8:cjc174_3807"
    INDEX 01 00:53:42
  TRACK 45 AUDIO
    TITLE "0:"
    INDEX 01 00:55:03
  TRACK 46 AUDIO
    TITLE "7:cjc174_3808"
    INDEX 01 00:55:49
  TRACK 47 AUDIO
    TITLE "0:"
    INDEX 01 00:56:70
  TRACK 48 AUDIO
    TITLE "8:cjc174_3809"
    INDEX 01 00:57:42
  TRACK 49 AUDIO
    TITLE "0:"
    INDEX 01 01:00:46
  TRACK 50 AUDIO
    TITLE "7:cjc174_3810"
    INDEX 01 01:01:16
  TRACK 51 AUDIO
    TITLE "0:"
    INDEX 01 01:02:23
  TRACK 52 AUDIO
    TITLE "8:cjc174_3811"
    INDEX 01 01:02:72
  TRACK 53 AUDIO
    TITLE "0:"
    INDEX 01 01:04:40
  TRACK 54 AUDIO
    TITLE "7:cjc174_3812"
    INDEX 01 01:05:10
  TRACK 55 AUDIO
    TITLE "0:"
    INDEX 01 01:06:15
  TRACK 56 AUDIO
    TITLE "8:cjc174_3813"
    INDEX 01 01:06:62
  TRACK 57 AUDIO
    TITLE "0:"
    INDEX 01 01:08:04
  TRACK 58 AUDIO
    TITLE "7:cjc174_3814"
    INDEX 01 01:08:53
  TRACK 59 AUDIO
    TITLE "0:"
    INDEX 01 01:09:60
  TRACK 60 AUDIO
    TITLE "8:cjc174_3815"
    INDEX 01 01:10:32
  TRACK 61 AUDIO
    TITLE "0:"
    INDEX 01 01:11:63
  TRACK 62 AUDIO
    TITLE "7:cjc174_3816"
    INDEX 01 01:12:33
  TRACK 63 AUDIO
    TITLE "0:"
    INDEX 01 01:13:62
  TRACK 64 AUDIO
    TITLE "8:cjc174_3817"
    INDEX 01 01:14:32
  TRACK 65 AUDIO
    TITLE "0:"
    INDEX 01 01:16:08
  TRACK 66 AUDIO
    TITLE "7:cjc174_3818"
    INDEX 01 01:16:53
  TRACK 67 AUDIO
    TITLE "0:"
    INDEX 01 01:17:68
  TRACK 68 AUDIO
    TITLE "8:cjc174_3819"
    INDEX 01 01:18:40
  TRACK 69 AUDIO
    TITLE "0:"
    INDEX 01 01:20:07
  TRACK 70 AUDIO
    TITLE "7:cjc174_3820"
    INDEX 01 01:20:52
  TRACK 71 AUDIO
    TITLE "0:"
    INDEX 01 01:21:75
  TRACK 72 AUDIO
    TITLE "8:cjc174_3821"
    INDEX 01 01:22:47
  TRACK 73 AUDIO
    TITLE "0:"
    INDEX 01 01:24:27
